<?xml version="1.0" standalone="no"?>
<!DOCTYPE svg PUBLIC "-//W3C//DTD SVG 20010904//EN"
 "http://www.w3.org/TR/2001/REC-SVG-20010904/DTD/svg10.dtd">
<svg version="1.0" xmlns="http://www.w3.org/2000/svg"
 width="447.000000pt" height="559.000000pt" viewBox="0 0 447.000000 559.000000"
 preserveAspectRatio="xMidYMid meet">

<g transform="translate(0.000000,559.000000) scale(0.100000,-0.100000)"
fill="#000000" stroke="none">
<path d="M190 2500 c-7 -4 -12 -20 -12 -35 0 -17 -3 -22 -8 -15 -4 7 -13 9
-19 6 -16 -10 -15 -366 1 -420 16 -53 84 -121 134 -135 52 -14 815 -15 866 -1
49 14 94 52 121 104 19 37 21 55 19 170 -1 80 -6 132 -13 136 -5 4 -21 5 -33
3 -13 -3 -27 1 -31 8 -6 9 -3 11 11 6 18 -7 18 -7 0 8 -15 11 -16 15 -5 16 8
0 6 4 -6 9 -18 8 -18 9 -2 9 10 1 16 5 13 10 -3 5 -14 7 -25 4 -13 -3 -20 2
-26 19 l-7 23 -8 -25 c-5 -17 -8 -19 -9 -7 -1 9 -5 17 -11 17 -6 0 -10 -57
-10 -150 0 -147 -1 -152 -25 -175 l-24 -25 -359 0 c-332 0 -362 1 -382 18 -21
17 -23 27 -27 192 -5 148 -8 177 -23 193 -16 17 -18 17 -17 1 1 -9 -5 -19 -13
-21 -12 -4 -12 -3 -1 5 10 7 10 11 1 17 -7 4 -16 2 -21 -6 -4 -7 -12 -10 -16
-5 -4 5 -2 11 5 13 6 3 12 11 12 18 0 15 -33 25 -50 15z"/>
<path d="M376 2383 c-11 -71 -7 -251 7 -260 13 -9 664 -6 678 3 5 3 9 63 9
135 0 107 -3 129 -15 129 -12 0 -15 -22 -17 -117 l-3 -118 -315 0 -315 0 -5
127 c-5 132 -13 165 -24 101z"/>
<path d="M1190 2400 c0 -5 5 -10 10 -10 6 0 10 5 10 10 0 6 -4 10 -10 10 -5 0
-10 -4 -10 -10z"/>
</g>
</svg>
